<?xml version="1.0" encoding="utf-8"?>
<!-- Generator: Adobe Illustrator 16.0.0, SVG Export Plug-In . SVG Version: 6.00 Build 0)  -->
<!DOCTYPE svg PUBLIC "-//W3C//DTD SVG 1.1//EN" "http://www.w3.org/Graphics/SVG/1.1/DTD/svg11.dtd">
<svg version="1.1" xmlns="http://www.w3.org/2000/svg" xmlns:xlink="http://www.w3.org/1999/xlink" x="0px" y="0px" width="864px"
	 height="864px" viewBox="0 0 864 864" enable-background="new 0 0 864 864" xml:space="preserve">
<g id="Layer_1" display="none">
	
		<image display="inline" overflow="visible" width="690" height="2448" xlink:href="C0DCFAA7.jpg"  transform="matrix(1.2762 0 0 1.2762 141.835 178.7598)">
	</image>
</g>
<g id="Layer_7">
	<rect x="-23" y="-17" fill="#3D3651" width="908" height="900"/>
</g>
<g id="Legs">
	<path fill="#222223" d="M492.854,638.243c0,0,4.589,2.527,7.6,7.317c3.013,4.792,17.087,18.028,18.896,22.979
		c0,0-17.606,14.006-17.757,20.512c0,0,22.559-15.813,31.208-13.642c0,0,12.04-1.592,25.377,21.869c0,0-5.142-22.526-10.21-24.883
		c0,0,8.01-2.645,20.008,11.768c0,0-6.884-28.063-33.323-19.809c0,0-22.639-25.114-27.959-30.466
		C501.373,628.539,492.125,631.636,492.854,638.243z"/>
	<g>
		<path fill="#E2E2E2" d="M553.796,672.935c3.495,1.138,8.527,4.114,14.546,11.565c0,0-3.055-13.299-13.577-19.063L553.796,672.935z
			"/>
		<path fill="#E2E2E2" d="M509.914,676.914c-4.091,4.006-7.907,8.507-8.016,11.49c0,0,2.942-1.999,7.106-4.444L509.914,676.914z"/>
		<path fill="#E2E2E2" d="M551.912,687.526c2.087,2.692,4.25,5.953,6.44,9.942c0,0-2.294-10.771-5.366-18.244L551.912,687.526z"/>
	</g>
	<path fill="#29292B" d="M474.234,649.096c0,0,7.954,1.768,11.489,6.187s15.908,16.202,18.266,20.916
		c0,0-15.907,15.909-15.318,22.391c0,0,20.622-18.267,29.46-17.088c0,0,11.783-2.944,27.691,18.856c0,0-7.658-21.801-12.961-23.568
		c0,0,7.658-3.535,21.211,9.428c0,0-10.018-27.104-35.353-15.91c0,0-25.337-22.388-31.229-27.103
		C481.6,638.49,472.761,642.613,474.234,649.096z"/>
	<g>
		<path fill="#E2E2E2" d="M537.812,676.484c3.616,0.655,9.003,2.92,15.976,9.488c0,0-4.824-12.758-16.032-17.049L537.812,676.484z"
			/>
		<path fill="#E2E2E2" d="M494.87,686.362c-3.513,4.522-6.683,9.5-6.39,12.472c0,0,2.646-2.378,6.443-5.37L494.87,686.362z"/>
		<path fill="#E2E2E2" d="M537.921,691.194c2.43,2.386,5.012,5.323,7.726,8.983c0,0-3.73-10.364-7.788-17.352L537.921,691.194z"/>
	</g>
</g>
<g id="Background">
	<path fill="#151B1B" d="M399.994,512.105c0,0,98.55-126.385,210.346-126.385c1.475,0,0,0,0,0s49.495-4.419,69.822,30.049
		c0,0,16.536,19.27,10.605,34.468c-4,10.254-25.519,16.398-41.54,22.096c0,0-31.816,20.917-43.011,23.568
		c0,0-35.942,43.307-48.021,48.021c0,0-26.515,16.792-36.237,49.493c0,0-15.908,16.792-10.605,29.166c0,0,8.839,4.418,3.536,19.444"
		/>
	<path fill="#151B1B" d="M399.994,510.338c0,0-6.187,19.444-56.563,23.863c0,0-1.768,5.303-8.838,5.303
		c0,0-45.958,3.534-54.796,6.187c0,0-11.489,15.024-7.955,22.095c0,0-19.444,0-38.888,17.677c0,0,0,5.303,12.374,10.605
		c0,0-22.096,7.071-22.096,12.374s0,5.303,0,5.303s-7.954,5.303,15.025,9.722c0,0-37.12,16.792,11.489,19.443
		c0,0-48.609,15.909,13.258,18.561c0,0,30.933-16.793,31.817-21.212c0,0-7.955,12.374-6.187,16.793c0,0,24.747-0.885,31.817-7.955
		l22.095-20.327c0,0,5.303-1.769,4.419,4.419c0,0-9.722,2.651-7.07,17.676l12.373-6.187c0,0,3.535,0,2.651,5.303
		c0,0,39.771-24.746,48.61-53.912C412.367,566.901,430.928,558.063,399.994,510.338z"/>
	<path fill="#29292B" d="M610.34,385.721c0,0-8.837-7.071,0-17.676c0,0,34.469-55.68,36.237-61.867c0,0,4.423-9.178-16.577-32.178
		c0,0-55.666-71.333-70.036-80.066C514,166,487.838,169.526,493,171c0,0,19.323,10.905,37,33c0,0,32,40,25,42
		c0,0-21.394-22.743-32-36c0,0-10.931-14.581-18-19c0,0-23.825-8.116-58-9c0,0,48,21,82,69c0,0-17-8-27-19c0,0-28-25-56-33
		c0,0,47.047,45.162,55,54c0,0-7,7-52-31c0,0,0,19,8,40c0,0-19-10.49-19,1c0,0-6.536,7.697-3,13c0,0-7.321,17.78-12,3
		c0,0,2.419,6-2,6c0,0-8-8.536-8-5c0,0,1.187,20.535-5,17c0,0-10.49-3.373,1,9c0,0,12.516,6.614,17,10
		c0,0,85.354,78.559,85.354,112.144l8.545-2.945C519.898,425.198,573.516,392.202,610.34,385.721z"/>
	<path fill="#151B1B" d="M402.646,594.3c0,0,20.034-3.537,20.623-1.18c0.588,2.358,0.588,2.358,0.588,2.358
		s-8.248,11.783-8.248,14.729c0,0,8.249-7.658,9.428-4.124c0,0,4.713,4.713-0.59,7.66c0,0,8.249-3.538,10.016-6.482
		c1.769-2.945,1.769-2.945,1.769-2.945s1.179,7.069-2.945,11.783c0,0,13.551-1.766,13.551-10.016c0,0,5.304,8.838,2.947,12.963
		c0,0,10.605-5.894,10.605-10.018c0,0,4.712,24.747,0.589,29.461c0,0,11.783,12.373,15.319,8.839c0,0,10.605-2.358,10.605-6.482
		c0,0-4.124-2.355-5.893-6.48c0,0,3.534-7.659-2.357-12.373c-5.892-4.715,0,2.945,0,2.945l0.59-18.854c0,0,5.303-7.658,10.605,1.769
		c0,0,0.59,17.086-1.767,17.086c0,0-2.357,12.961,1.767,15.908c0,0,3.537,1.767,4.126,5.303c0,0,16.499-0.589,20.622-5.892
		c0,0,3.535-8.84-5.304-20.622c0,0,3.534-21.8,13.551-27.104c0,0,1.769-18.264,7.071-22.978l-126.681-57.157L402.646,594.3z"/>
	<path fill="#151B1B" d="M564.383,413.119c0,0-51.261-17.677-98.104-92.8c0,0-142.293-82.194-166.156-122.85
		c0,0-11.49,13.257,36.236,55.68c0,0-59.216-13.257-82.194-70.705c0,0,11.49,42.423,21.211,53.913c0,0-44.19-30.049-60.983-56.564
		c0,0,3.535,11.49,7.071,17.676l-15.025-7.954c0,0,7.07,7.954,8.838,12.373c0,0-21.212-17.676-40.655-23.863
		c0,0,15.909,9.722-14.141,1.768c0,0,16.792,11.49,17.676,16.792c0,0-9.722-2.651-40.655-2.651c0,0,26.514,13.257,28.282,18.56
		c1.768,5.303,1.768,5.303,1.768,5.303s-49.494-22.095-62.75-16.792c0,0,0,7.07,17.676,17.676c0,0,53.913,19.444,59.215,28.282
		c0,0,27.398,19.444-18.56,1.767c0,0-1.768,9.722,22.095,17.677c0,0,24.747,12.373,28.281,22.095c0,0-7.954-6.187-24.747-7.071
		c0,0,14.141,20.328,30.934,26.515c0,0,16.792,12.373,17.676,19.443c0,0-13.257-8.838-16.792-11.489
		c0,0,22.979,30.933,38.888,31.817c0,0,7.07,4.419-11.489,7.071c0,0,0.884,12.373,17.676,22.979c0,0,7.954,0.883,12.373,5.303
		c0,0,7.954,7.954,11.49,16.792c0,0,15.908,1.767,19.444,4.419c0,0-1.768,3.536-6.187,3.536c0,0-0.884,11.489,12.374,15.908
		c0,0,15.024,7.955,15.908,12.373c0,0,37.12,6.188,46.842,4.419c0,0-4.419,7.071-39.772,3.536c0,0-14.141,22.979,30.934,31.817
		c0,0-16.792,8.837,0,16.792c0,0,2.652,7.069,11.489,9.722c0,0-3.535,15.908,19.444,7.069
		C399.994,509.453,549.357,409.583,564.383,413.119z"/>
</g>
<g id="Lightbox">
	<path opacity="0.01" fill="#FFFFFF" d="M637.738,449.945c0,0-20.03,17.085-29.459,21.799c0,0-30.639,17.088-33.585,23.569
		c0,0-43.011,42.422-54.796,42.422c0,0-32.407,2.357-39.478-0.59c0,0,10.017-58.919,5.893-64.222c0,0,83.078-40.655,87.202-46.547
		c0,0,9.427-4.125,23.568-8.838c0,0,13.55-5.892,17.676-6.481c0,0,31.817-22.39,47.137-8.838c0,0,14.73,20.032,11.194,29.461
		c0,0-2.355,5.302-7.658,10.016c0,0-11.198-7.96-19.446-8.104s0,0,0,0S638.916,446.999,637.738,449.945z"/>
	<path opacity="0.03" fill="#FFFFFF" d="M345.198,256.685c0,0-68.054-15.909-90.149-72.472c0,0,5.303,32.701,18.561,49.493
		c0,0,64.518,53.029,101.638,62.75c0,0-4.419-15.025,0-15.025C375.247,281.431,345.198,264.639,345.198,256.685z"/>
	<path opacity="0.03" fill="#FFFFFF" d="M316.032,391.907c0,0-61.866-33.291-68.937-38.004c0,0,7.071,22.095,24.747,25.925
		c0,0,8.25,0,16.498,15.908C288.339,395.737,311.319,400.745,316.032,391.907z"/>
	<path opacity="0.03" fill="#FFFFFF" d="M188.763,263.166c0,0,38.887,15.319,41.833,25.924c0,0-0.589,3.536,4.125,7.661
		c0,0,17.086,12.667,24.747,22.685c0,0-47.726-1.768-69.526-36.826c0,0,8.838-3.535,23.568,9.428
		C213.51,292.037,214.1,283.199,188.763,263.166z"/>
	<path opacity="0.03" fill="#FFFFFF" d="M369.061,430.794c0,0-54.796-10.605-66.286-21.211c0,0,0,10.605,15.908,16.793
		c0,0,4.419,5.303,9.722,7.954c0,0,24.747,9.723,35.353,1.768C363.758,436.098,374.363,429.911,369.061,430.794z"/>
	<path opacity="0.03" fill="#FFFFFF" d="M339.011,444.936c0,0,25.63,33.585,47.726,21.212c0,0,7.954,2.651,2.651,5.303
		c0,0-26.514,9.723-46.842-6.188C342.546,465.263,328.405,449.355,339.011,444.936z"/>
	<path opacity="0.03" fill="#FFFFFF" d="M344.314,625.233c0,0-19.444,17.676-25.631,25.63c0,0-24.747,1.769-31.817,8.838
		c0,0,7.07-18.56,10.606-22.095c3.535-3.535-3.536,3.535-3.536,3.535S322.219,617.278,344.314,625.233z"/>
	<path opacity="0.03" fill="#FFFFFF" d="M280.68,543.923c0,0,50.377-7.954,54.796-4.419c0,0-10.605,12.373-16.792,15.024
		c0,0-41.768,3.409-45.074-2.651c-5.303-9.722,2.651-1.768,2.651-1.768L280.68,543.923z"/>
	<path opacity="0.03" fill="#FFFFFF" d="M494.562,380.418c0,0-17.676-10.605-21.212-18.56c0,0-20.327-10.606-23.862-8.838
		c0,0,12.373,11.489,17.676,18.56C467.163,371.58,487.491,382.186,494.562,380.418z"/>
	<path opacity="0.03" fill="#FFFFFF" d="M405.575,555.837c0,0,7.776-36.049,14.43-37.061c0,0,21.261,2.396,23.593,6.149
		C443.598,524.926,418.81,510.153,405.575,555.837z"/>
	<path opacity="0.03" fill="#FFFFFF" d="M174.623,176.258c0,0,34.469,15.025,36.236,23.863c0.775,3.876,1.768,3.536,1.768,3.536
		s-26.515-8.838-32.701-5.303c0,0-20.489-19.55-16.792-18.56C175.762,183.174,187.312,188.477,174.623,176.258z"/>
	<path opacity="0.03" fill="#FFFFFF" d="M152.527,211.61c0,0-30.05-16.792-45.074-12.374c0,0-11.49,12.374,33.585,24.747
		c0,0,3.535-6.187,20.327-7.954C161.365,216.029,154.295,211.61,152.527,211.61z"/>
	<path opacity="0.03" fill="#FFFFFF" d="M137.502,194.818c0,0,20.328-4.419,33.585,1.768l-4.419,15.909
		C166.668,212.494,164.017,203.656,137.502,194.818z"/>
</g>
<g id="Beak">
	<path fill="#2D4E49" d="M703.141,505.919c0,0,10.605-30.049-18.561-57.447c0,0-9.721-4.419-22.979,3.535
		c0,0-9.722,15.908-9.722,19.443c0,0,14.141,2.209,19.443,8.396C671.323,479.846,694.302,502.384,703.141,505.919z"/>
	<path fill="#7C8E98" d="M703.141,505.919c0,0-22.095-40.656-36.236-49.493C666.904,456.426,688.999,480.288,703.141,505.919z"/>
</g>
<g id="eye">
	<path fill="#262828" d="M661.896,435.214c0,4.638-2.877,6.773-7.514,6.773s-8.396-3.759-8.396-8.396s3.76-8.396,8.396-8.396
		S661.896,430.577,661.896,435.214z"/>
	<circle cx="653.942" cy="434.036" r="1.768"/>
	<path opacity="0.7" fill="#FFFFFF" d="M650.408,431.68c0,0,6.482,2.061,7.071,3.534
		C657.479,435.214,657.185,426.376,650.408,431.68z"/>
	<path opacity="0.5" fill="#FFFFFF" d="M673.975,421.663c0,0-0.59-12.668-10.017-16.203
		C663.958,405.459,672.502,412.235,673.975,421.663z"/>
	<path opacity="0.5" fill="#FFFFFF" d="M669.301,421.946c0,0-2.588-12.415-12.455-14.413
		C656.846,407.533,666.355,412.871,669.301,421.946z"/>
	<path opacity="0.5" fill="#FFFFFF" d="M667.084,423.199c0,0-5.029-11.641-15.096-11.618
		C651.988,411.581,662.377,414.9,667.084,423.199z"/>
	<path fill="#414D49" d="M647.463,425.195c0,0,17.97-4.858,13.55,14.144c0,0,1.178-19.741-13.257-10.313
		C647.756,429.025,643.928,427.846,647.463,425.195z"/>
	<path fill="#414D49" d="M661.013,439.339c0,0-15.319,6.924-13.55-9.726c0,0,1.175-5.004-1.77-2.647
		C645.693,426.965,643.483,450.977,661.013,439.339z"/>
</g>
</svg>
