<?xml version="1.0" encoding="utf-8"?>
<!-- Generator: Adobe Illustrator 16.0.0, SVG Export Plug-In . SVG Version: 6.00 Build 0)  -->
<!DOCTYPE svg PUBLIC "-//W3C//DTD SVG 1.1//EN" "http://www.w3.org/Graphics/SVG/1.1/DTD/svg11.dtd">
<svg version="1.1" id="Layer_1" xmlns="http://www.w3.org/2000/svg" xmlns:xlink="http://www.w3.org/1999/xlink" x="0px" y="0px"
	 width="144px" height="144px" viewBox="0 0 144 144" enable-background="new 0 0 144 144" xml:space="preserve">
<path fill="#FFFFFF" d="M132.685,71.642L144,64.822c-0.243-2.468-0.631-4.944-1.137-7.419l0.014-0.009l-0.075-0.29
	c-0.301-1.445-0.632-2.89-1.025-4.333c-0.241-0.881-0.503-1.75-0.772-2.613l-13.076-1.854c-1.936-5.293-5.972-10.925-5.972-10.925
	l-0.006,0.004c-2.145-3.113-4.555-6.001-7.201-8.625l3.178-12.82c-3.871-3.177-8.06-5.94-12.486-8.252l-10.555,7.932
	c-7.248-2.964-15.101-4.546-23.152-4.516l-6.81-11.298c-4.008,0.396-8.037,1.127-12.053,2.224c-0.88,0.24-1.748,0.501-2.611,0.772
	l-1.851,13.044c-7.499,3.138-14.104,7.668-19.588,13.199l-12.783-3.168c-3.178,3.87-5.939,8.06-8.253,12.486l7.909,10.522
	c-2.973,7.264-4.558,15.133-4.522,23.202l-11.269,6.793c0.396,4.008,1.128,8.036,2.225,12.052c0.24,0.879,0.502,1.749,0.771,2.611
	l13.021,1.847c1.629,3.891,3.64,7.535,5.963,10.912l-0.003,0.002c0,0,0.415,0.597,1.063,1.481c0.219,0.298,0.436,0.597,0.659,0.89
	c0.179,0.238,0.364,0.483,0.56,0.739c0.062,0.081,2.743,3.557,4.981,5.578l-3.167,12.773c2.225,1.825,4.564,3.497,6.982,5.042
	l0.194,0.14l0.014-0.01c1.726,1.094,3.486,2.135,5.297,3.08l10.527-7.913c7.259,2.968,15.124,4.548,23.188,4.51l6.803,11.286
	c4.007-0.396,8.035-1.128,12.051-2.225c0.88-0.241,1.749-0.502,2.612-0.772l1.852-13.052c7.49-3.142,14.084-7.67,19.56-13.199
	l12.811,3.176c3.177-3.872,5.939-8.06,8.252-12.487l-7.935-10.559C131.141,87.534,132.718,79.688,132.685,71.642z M66.827,53.1
	c10.356-2.83,21.046,3.271,23.877,13.626c0.349,1.275,0.559,2.556,0.645,3.826c0.006,0.082,0.006,0.164,0.01,0.246
	c0.024,0.451,0.026,0.899,0.021,1.346c-0.007,0.383-0.029,0.763-0.058,1.14c-0.019,0.248-0.035,0.496-0.063,0.742
	c-0.05,0.428-0.117,0.849-0.194,1.268c-0.036,0.201-0.067,0.402-0.11,0.602c-0.098,0.454-0.217,0.9-0.346,1.343
	c-0.045,0.155-0.085,0.313-0.134,0.469c-0.157,0.492-0.337,0.976-0.531,1.45c-0.037,0.093-0.07,0.187-0.109,0.278
	c-0.238,0.557-0.498,1.102-0.785,1.629c-0.001,0.003-0.002,0.005-0.004,0.008C85.748,87.14,79.317,91.26,71.924,91.26
	c-2.384,0-4.665-0.435-6.776-1.219c-0.217-0.082-0.434-0.166-0.647-0.256c-0.238-0.098-0.478-0.194-0.71-0.302
	c-0.417-0.193-0.827-0.403-1.229-0.625c-0.172-0.095-0.341-0.193-0.51-0.293c-0.414-0.245-0.823-0.5-1.218-0.775
	c-0.077-0.053-0.15-0.108-0.226-0.163c-0.404-0.29-0.797-0.597-1.179-0.918c-0.085-0.072-0.171-0.143-0.255-0.215
	c-0.425-0.371-0.837-0.758-1.23-1.165c-0.03-0.031-0.059-0.063-0.088-0.095c-2.143-2.253-3.777-5.051-4.654-8.26
	C50.37,66.618,56.472,55.93,66.827,53.1z"/>
</svg>
